<svg id="svg" version="1.1" xmlns="http://www.w3.org/2000/svg" xmlns:xlink="http://www.w3.org/1999/xlink" width="400" height="81.73322005097705" viewBox="0, 0, 400,81.73322005097705"><g id="svgg"><path id="path0" d="M363.917 1.019 C 362.885 1.201,361.831 1.348,361.500 1.355 C 361.363 1.358,360.387 1.472,359.333 1.608 C 358.279 1.743,357.004 1.896,356.500 1.947 C 354.662 2.134,354.605 3.117,356.417 3.388 C 357.657 3.573,358.108 3.767,358.762 4.398 C 359.225 4.845,360.000 6.251,360.000 6.645 C 360.000 6.810,360.048 6.993,360.107 7.052 C 360.307 7.251,360.469 47.477,360.271 47.800 C 360.232 47.864,360.158 48.292,360.108 48.750 C 359.843 51.165,358.790 52.393,356.583 52.862 C 354.781 53.245,354.833 53.218,354.833 53.760 L 354.833 54.167 363.250 54.167 L 371.667 54.167 371.667 53.619 C 371.667 53.217,371.589 53.066,371.375 53.050 C 370.852 53.011,369.596 52.661,369.000 52.387 C 368.466 52.142,367.036 51.000,367.263 51.000 C 367.317 51.000,367.198 50.737,367.000 50.417 C 366.802 50.096,366.692 49.833,366.757 49.833 C 366.821 49.833,366.803 49.740,366.717 49.625 C 366.433 49.250,366.424 48.497,366.421 24.542 L 366.417 0.833 365.583 0.853 C 365.125 0.864,364.375 0.939,363.917 1.019 M222.083 1.258 C 221.258 1.380,220.171 1.526,219.667 1.582 C 219.162 1.638,218.600 1.719,218.417 1.762 C 218.233 1.805,217.783 1.868,217.417 1.901 C 217.050 1.935,215.903 2.062,214.867 2.184 L 212.984 2.405 213.034 2.994 C 213.076 3.493,213.147 3.586,213.500 3.600 C 214.474 3.639,215.833 3.883,215.833 4.019 C 215.833 4.100,215.979 4.167,216.157 4.167 C 216.335 4.167,216.598 4.333,216.741 4.537 C 216.883 4.741,217.000 4.843,217.000 4.764 C 217.000 4.421,218.147 6.108,218.337 6.730 C 218.912 8.606,218.973 9.585,218.991 17.288 C 219.007 24.133,218.981 24.982,218.754 24.895 C 218.615 24.842,218.500 24.731,218.500 24.649 C 218.500 24.567,218.385 24.500,218.245 24.500 C 218.104 24.500,217.946 24.387,217.894 24.250 C 217.841 24.112,217.693 24.000,217.566 24.000 C 217.438 24.000,217.333 23.938,217.333 23.861 C 217.333 23.785,217.127 23.617,216.875 23.487 C 216.623 23.357,216.379 23.209,216.333 23.158 C 214.629 21.269,207.001 20.713,203.616 22.232 C 203.323 22.363,202.616 22.675,202.045 22.923 C 201.474 23.172,201.042 23.433,201.085 23.503 C 201.129 23.574,200.977 23.678,200.749 23.735 C 200.520 23.793,200.333 23.913,200.333 24.003 C 200.333 24.093,200.221 24.167,200.083 24.167 C 199.946 24.167,199.833 24.254,199.833 24.361 C 199.833 24.468,199.792 24.514,199.742 24.464 C 199.691 24.413,199.297 24.711,198.867 25.125 C 198.436 25.539,197.915 25.988,197.710 26.124 C 197.504 26.259,197.373 26.429,197.417 26.501 C 197.462 26.573,197.386 26.675,197.249 26.727 C 197.112 26.780,197.000 26.903,197.000 27.002 C 197.000 27.100,196.851 27.341,196.668 27.537 C 196.366 27.861,195.988 28.524,195.027 30.417 C 193.780 32.871,193.000 38.304,193.496 41.083 C 193.577 41.542,193.690 42.217,193.747 42.583 C 193.803 42.950,193.891 43.362,193.941 43.500 C 193.991 43.637,194.070 43.974,194.116 44.248 C 194.162 44.522,194.428 45.234,194.707 45.831 C 194.987 46.428,195.233 46.992,195.254 47.083 C 195.418 47.789,199.000 52.223,199.000 51.719 C 199.000 51.684,199.394 51.950,199.875 52.309 C 201.574 53.576,205.865 55.143,206.523 54.736 C 206.602 54.687,206.667 54.708,206.667 54.782 C 206.667 54.968,210.860 54.886,212.083 54.675 C 214.099 54.328,215.740 53.755,217.875 52.651 L 219.167 51.984 219.167 52.900 C 219.167 53.405,219.244 54.179,219.339 54.621 C 219.532 55.521,219.354 55.470,221.583 55.261 C 223.624 55.070,224.203 54.997,224.332 54.918 C 224.408 54.871,225.058 54.797,225.777 54.753 C 226.495 54.709,227.233 54.643,227.417 54.606 C 227.600 54.569,228.444 54.484,229.293 54.418 C 231.015 54.284,230.978 54.306,230.823 53.500 C 230.761 53.179,230.701 53.010,230.689 53.125 C 230.663 53.369,230.065 53.407,229.921 53.174 C 229.867 53.087,229.555 53.036,229.228 53.062 C 228.852 53.091,228.603 53.027,228.549 52.888 C 228.502 52.766,228.285 52.667,228.066 52.667 C 227.846 52.667,227.667 52.587,227.667 52.490 C 227.667 52.393,227.592 52.360,227.500 52.417 C 227.408 52.473,227.333 52.449,227.333 52.363 C 227.333 52.276,227.190 52.168,227.014 52.122 C 226.599 52.014,225.943 50.962,225.465 49.638 L 225.083 48.583 225.039 24.792 L 224.994 1.000 224.289 1.018 C 223.901 1.028,222.908 1.136,222.083 1.258 M239.458 1.115 C 239.298 1.157,239.167 1.261,239.167 1.346 C 239.167 1.430,239.067 1.500,238.944 1.500 C 238.615 1.500,237.869 2.403,237.560 3.177 C 236.928 4.756,237.859 6.908,239.433 7.506 C 240.339 7.851,242.833 7.590,242.833 7.150 C 242.833 7.068,242.929 7.000,243.046 7.000 C 243.163 7.000,243.457 6.775,243.698 6.500 C 243.939 6.225,244.110 6.000,244.077 6.000 C 244.044 6.000,244.132 5.724,244.273 5.387 C 244.460 4.939,244.493 4.570,244.396 4.012 C 244.323 3.593,244.271 3.157,244.280 3.043 C 244.289 2.930,244.229 2.878,244.148 2.928 C 244.067 2.979,244.000 2.901,244.000 2.757 C 244.000 2.476,242.846 1.265,242.709 1.402 C 242.664 1.447,242.518 1.375,242.385 1.242 C 242.150 1.007,240.195 0.922,239.458 1.115 M290.205 1.133 C 288.911 1.532,287.893 3.188,288.049 4.639 C 288.520 9.021,295.188 8.646,294.964 4.250 C 294.841 1.834,292.631 0.386,290.205 1.133 M310.200 12.033 C 310.090 12.143,310.000 12.344,310.000 12.480 C 310.000 12.886,309.297 14.867,308.891 15.604 C 308.683 15.982,308.564 16.342,308.627 16.404 C 308.689 16.467,308.667 16.570,308.577 16.634 C 308.379 16.774,307.500 18.113,307.500 18.274 C 307.500 18.408,307.345 18.576,305.994 19.910 C 304.949 20.941,302.946 22.321,302.484 22.329 C 302.338 22.331,302.078 22.488,301.907 22.677 C 301.430 23.204,301.816 23.328,303.952 23.331 L 305.820 23.333 305.876 36.625 C 305.907 43.935,305.988 50.142,306.056 50.417 C 306.561 52.472,307.612 53.519,310.083 54.430 C 310.267 54.498,310.464 54.544,310.523 54.533 C 310.581 54.522,310.881 54.590,311.190 54.685 C 311.903 54.905,316.127 54.885,317.333 54.655 C 318.844 54.368,322.000 52.921,322.000 52.515 C 322.000 52.453,322.256 52.131,322.570 51.799 C 322.883 51.467,323.095 51.151,323.042 51.097 C 322.988 51.044,323.040 51.000,323.157 51.000 C 323.273 51.000,323.328 50.892,323.277 50.761 C 323.227 50.629,323.275 50.488,323.384 50.447 C 323.515 50.397,323.468 50.281,323.250 50.108 C 322.881 49.816,322.500 49.752,322.500 49.981 C 322.500 50.124,320.940 51.742,320.474 52.083 C 320.348 52.175,320.123 52.347,319.973 52.465 C 319.380 52.932,316.673 53.181,316.216 52.810 C 315.978 52.618,315.957 52.619,316.077 52.817 C 316.182 52.992,316.158 53.014,315.984 52.906 C 315.855 52.825,315.603 52.737,315.422 52.709 C 314.640 52.587,313.207 51.217,312.674 50.083 C 311.869 48.369,311.850 48.033,311.839 35.292 L 311.829 23.333 316.581 23.333 L 321.333 23.333 321.333 22.583 L 321.333 21.833 316.583 21.833 L 311.833 21.833 311.833 16.934 C 311.833 12.621,311.802 12.024,311.570 11.934 C 311.135 11.768,310.413 11.820,310.200 12.033 M242.469 21.420 C 242.412 21.476,242.040 21.550,241.642 21.584 C 241.243 21.617,240.579 21.687,240.167 21.738 C 239.754 21.789,239.154 21.864,238.833 21.904 C 238.512 21.943,237.950 22.008,237.583 22.047 C 234.854 22.339,233.020 22.575,233.073 22.629 C 233.108 22.663,233.073 22.911,232.996 23.179 C 232.920 23.447,232.908 23.672,232.970 23.679 C 233.107 23.695,233.300 23.733,234.558 23.995 C 235.665 24.225,236.586 24.934,237.250 26.069 C 237.995 27.343,238.039 28.014,238.049 38.250 C 238.054 44.467,237.997 47.294,237.846 48.250 C 237.729 48.983,237.619 49.701,237.600 49.845 C 237.534 50.358,236.987 51.319,236.580 51.639 C 236.353 51.818,236.167 52.052,236.167 52.159 C 236.167 52.266,236.097 52.310,236.012 52.257 C 235.926 52.204,235.815 52.228,235.764 52.311 C 235.669 52.465,234.111 53.020,233.880 52.982 C 233.809 52.970,233.713 52.975,233.667 52.993 C 233.621 53.011,233.446 53.051,233.279 53.083 C 232.638 53.205,232.478 53.339,232.530 53.708 L 232.583 54.083 240.958 54.127 L 249.333 54.170 249.333 53.823 C 249.333 53.398,249.038 53.100,248.550 53.033 C 248.349 53.005,247.735 52.806,247.186 52.591 C 246.638 52.376,246.153 52.236,246.110 52.279 C 246.066 52.323,245.981 52.203,245.921 52.013 C 245.860 51.822,245.718 51.667,245.605 51.667 C 245.384 51.667,244.466 50.315,244.378 49.859 C 244.349 49.707,244.284 49.358,244.234 49.083 C 244.184 48.808,244.130 42.471,244.113 35.000 L 244.083 21.417 243.327 21.367 C 242.911 21.340,242.525 21.364,242.469 21.420 M263.167 21.443 C 262.938 21.483,262.637 21.561,262.500 21.615 C 262.362 21.669,262.137 21.727,262.000 21.744 C 261.558 21.800,260.424 22.204,260.191 22.390 C 259.863 22.651,259.295 22.978,258.958 23.100 C 258.798 23.158,258.667 23.272,258.667 23.353 C 258.667 23.434,258.563 23.500,258.436 23.500 C 258.116 23.500,255.757 25.868,255.863 26.082 C 255.893 26.141,255.785 26.264,255.625 26.353 C 253.813 27.367,253.307 33.445,254.804 36.220 C 255.516 37.539,255.607 37.671,255.723 37.555 C 255.784 37.494,255.833 37.536,255.833 37.649 C 255.833 38.023,257.541 39.687,257.817 39.581 C 257.958 39.527,258.019 39.537,257.953 39.603 C 257.797 39.759,258.317 40.333,258.614 40.333 C 258.741 40.333,258.882 40.433,258.929 40.555 C 258.976 40.677,259.273 40.878,259.590 41.003 C 260.341 41.297,260.318 41.383,259.418 41.648 C 258.948 41.787,258.709 41.940,258.776 42.060 C 258.846 42.185,258.809 42.182,258.666 42.049 C 258.500 41.896,258.366 41.895,258.099 42.042 C 257.907 42.148,257.675 42.240,257.583 42.246 C 257.220 42.270,256.667 42.531,256.667 42.678 C 256.667 42.763,256.610 42.818,256.542 42.800 C 256.317 42.741,255.667 43.019,255.667 43.174 C 255.667 43.257,255.447 43.438,255.178 43.577 C 254.733 43.808,254.379 44.380,254.471 44.721 C 254.492 44.796,254.430 44.810,254.334 44.750 C 253.775 44.405,253.324 47.317,253.726 48.678 C 254.123 50.024,255.873 52.104,256.711 52.227 C 256.852 52.248,257.068 52.345,257.192 52.444 C 257.465 52.661,258.867 53.106,259.667 53.229 C 259.987 53.278,262.245 53.337,264.684 53.359 C 270.187 53.410,273.500 53.984,273.500 54.888 C 273.500 54.980,273.547 55.009,273.604 54.951 C 274.229 54.326,276.229 58.942,275.729 59.856 C 275.662 59.978,275.458 61.150,275.450 61.458 C 275.447 61.573,275.382 61.667,275.306 61.667 C 275.229 61.667,275.167 61.819,275.167 62.005 C 275.167 62.191,275.055 62.387,274.918 62.439 C 274.781 62.492,274.707 62.598,274.755 62.674 C 274.802 62.751,274.675 62.968,274.472 63.157 C 274.270 63.346,274.163 63.500,274.235 63.500 C 274.525 63.500,272.351 65.183,271.418 65.680 C 270.233 66.312,269.783 66.465,268.333 66.729 C 268.012 66.787,267.563 66.875,267.333 66.925 C 266.970 67.003,262.986 67.002,261.833 66.922 C 261.604 66.906,261.117 66.808,260.750 66.704 C 260.383 66.600,259.823 66.470,259.504 66.415 C 259.186 66.360,258.886 66.261,258.838 66.195 C 258.789 66.128,258.413 65.926,258.002 65.745 C 257.590 65.565,257.009 65.203,256.710 64.941 C 256.411 64.679,256.167 64.521,256.167 64.589 C 256.167 64.728,255.327 63.819,254.815 63.125 C 254.629 62.873,254.532 62.667,254.598 62.667 C 254.664 62.667,254.587 62.521,254.426 62.344 C 254.265 62.166,254.183 61.941,254.244 61.844 C 254.304 61.746,254.269 61.667,254.167 61.667 C 254.064 61.667,254.026 61.592,254.083 61.501 C 254.139 61.410,254.120 61.221,254.041 61.080 C 253.922 60.867,254.016 59.335,254.210 58.326 C 254.394 57.371,256.169 55.717,256.765 55.946 C 256.894 55.995,257.000 55.953,257.000 55.851 C 257.000 55.650,257.707 55.596,257.894 55.783 C 257.957 55.846,258.110 55.913,258.233 55.931 C 258.639 55.991,259.257 56.483,259.753 57.143 C 260.409 58.015,260.939 57.843,261.028 56.730 C 261.060 56.329,261.025 56.000,260.950 56.000 C 260.875 56.000,260.859 55.926,260.915 55.835 C 260.971 55.745,260.937 55.576,260.839 55.460 C 260.741 55.345,260.437 54.931,260.163 54.542 C 259.889 54.152,259.548 53.833,259.406 53.833 C 259.263 53.833,259.188 53.766,259.239 53.684 C 259.354 53.498,259.034 53.373,258.542 53.414 C 258.335 53.430,258.167 53.385,258.167 53.312 C 258.167 53.179,256.131 53.240,255.667 53.387 C 255.529 53.430,255.250 53.519,255.046 53.584 C 254.843 53.650,254.637 53.695,254.588 53.685 C 254.540 53.675,254.367 53.798,254.204 53.958 C 254.041 54.119,253.684 54.438,253.409 54.667 C 252.836 55.146,251.928 56.297,251.910 56.567 C 251.903 56.668,251.846 56.881,251.782 57.042 C 251.719 57.202,251.616 57.465,251.554 57.625 C 251.492 57.785,251.428 58.142,251.413 58.417 C 251.398 58.692,251.325 59.055,251.252 59.225 C 251.178 59.395,251.185 59.582,251.267 59.642 C 251.349 59.701,251.417 60.050,251.417 60.417 C 251.417 60.783,251.472 61.125,251.539 61.175 C 251.607 61.226,251.688 61.503,251.720 61.791 C 251.751 62.079,251.864 62.419,251.970 62.548 C 252.077 62.676,252.114 62.830,252.054 62.890 C 251.994 62.951,252.027 63.000,252.128 63.000 C 252.228 63.000,252.359 63.152,252.418 63.339 C 252.477 63.525,252.689 63.855,252.888 64.072 C 254.171 65.468,254.158 65.457,255.273 66.164 C 255.709 66.441,256.167 66.667,256.291 66.667 C 256.415 66.667,256.800 66.804,257.148 66.972 C 257.496 67.140,257.905 67.259,258.057 67.237 C 258.209 67.214,258.333 67.261,258.333 67.341 C 258.333 67.420,258.615 67.536,258.958 67.598 C 259.302 67.660,259.733 67.740,259.917 67.777 C 262.165 68.223,268.890 68.253,270.667 67.824 C 271.079 67.724,271.604 67.617,271.833 67.585 C 272.063 67.553,272.269 67.512,272.292 67.493 C 272.315 67.474,272.408 67.440,272.500 67.417 C 272.592 67.394,272.704 67.356,272.750 67.333 C 272.895 67.261,273.157 67.209,273.488 67.188 C 273.665 67.176,273.918 67.058,274.052 66.925 C 274.185 66.791,274.333 66.722,274.382 66.771 C 274.500 66.889,276.333 65.983,276.333 65.806 C 276.333 65.729,276.446 65.667,276.583 65.667 C 276.721 65.667,276.833 65.592,276.833 65.500 C 276.833 65.408,276.904 65.333,276.991 65.333 C 277.135 65.333,277.831 64.777,278.250 64.329 C 278.342 64.231,278.585 63.990,278.792 63.795 C 278.998 63.600,279.167 63.349,279.167 63.238 C 279.167 63.127,279.284 62.991,279.427 62.936 C 279.571 62.881,279.646 62.769,279.596 62.687 C 279.545 62.605,279.627 62.436,279.778 62.311 C 280.122 62.025,280.543 61.038,280.412 60.826 C 280.358 60.738,280.406 60.667,280.518 60.667 C 280.630 60.667,280.673 60.617,280.613 60.557 C 280.552 60.497,280.587 60.346,280.689 60.223 C 281.510 59.234,280.750 53.951,279.558 52.357 C 278.939 51.529,277.748 50.333,277.542 50.333 C 277.450 50.333,277.278 50.218,277.161 50.076 C 276.846 49.696,275.277 49.011,273.667 48.549 C 272.165 48.119,272.187 48.120,263.583 47.919 C 259.195 47.816,258.938 47.784,258.157 47.243 C 256.585 46.154,256.936 44.426,258.917 43.503 C 259.962 43.016,261.115 42.850,265.400 42.571 C 266.905 42.473,267.583 42.399,267.583 42.335 C 267.583 42.321,267.800 42.282,268.065 42.247 C 268.330 42.213,268.667 42.131,268.815 42.065 C 268.963 41.999,269.121 41.933,269.167 41.917 C 269.212 41.901,269.461 41.801,269.719 41.694 C 269.977 41.587,270.268 41.500,270.365 41.500 C 270.462 41.500,270.991 41.200,271.540 40.833 C 272.089 40.467,272.591 40.167,272.655 40.167 C 272.847 40.167,274.897 38.118,275.157 37.667 C 275.667 36.779,276.197 35.592,276.233 35.255 C 276.254 35.061,276.321 34.821,276.383 34.721 C 276.445 34.622,276.540 33.912,276.595 33.145 C 276.688 31.842,276.626 31.349,276.088 29.115 C 276.048 28.949,275.828 28.404,275.599 27.903 C 275.369 27.403,275.164 26.938,275.142 26.872 C 275.120 26.805,274.967 26.605,274.801 26.427 C 274.635 26.249,274.500 26.049,274.500 25.981 C 274.500 25.914,274.305 25.627,274.066 25.344 C 273.512 24.684,273.609 24.468,274.696 23.937 C 276.488 23.063,277.669 23.393,278.918 25.117 C 279.758 26.276,280.394 26.667,281.441 26.667 C 284.223 26.667,284.205 23.043,281.417 21.729 C 280.110 21.114,277.312 21.216,275.583 21.943 C 275.144 22.128,273.606 23.037,273.500 23.175 C 273.252 23.497,272.665 23.657,272.303 23.500 C 271.808 23.287,271.279 22.956,271.148 22.777 C 271.092 22.701,271.017 22.653,270.981 22.672 C 270.946 22.691,270.617 22.577,270.250 22.420 C 268.222 21.551,265.046 21.113,263.167 21.443 M292.986 21.399 C 292.907 21.474,291.878 21.616,290.417 21.752 C 289.867 21.804,289.192 21.894,288.917 21.953 C 288.642 22.012,288.229 22.077,288.000 22.099 C 287.771 22.120,287.133 22.191,286.583 22.258 C 286.033 22.324,285.415 22.387,285.208 22.398 C 285.002 22.408,284.833 22.477,284.833 22.552 C 284.833 22.626,284.757 22.639,284.663 22.581 C 284.230 22.313,283.583 22.667,283.583 23.171 C 283.583 23.444,283.658 23.678,283.750 23.692 C 285.025 23.886,285.675 24.045,285.761 24.184 C 285.813 24.269,285.915 24.302,285.987 24.258 C 286.635 23.858,288.230 26.395,288.498 28.250 C 288.973 31.536,288.567 49.997,288.009 50.500 C 287.958 50.546,287.804 50.808,287.666 51.083 C 287.412 51.592,286.864 52.151,286.609 52.161 C 286.532 52.164,286.250 52.322,285.984 52.511 C 285.718 52.701,285.500 52.817,285.500 52.769 C 285.500 52.721,285.185 52.793,284.799 52.929 C 284.414 53.065,284.003 53.140,283.888 53.095 C 283.772 53.051,283.628 53.094,283.568 53.192 C 283.495 53.310,283.410 53.293,283.315 53.143 C 283.220 52.993,283.171 53.128,283.169 53.542 L 283.167 54.167 291.583 54.167 L 300.000 54.167 300.000 53.770 C 300.000 53.344,299.735 53.052,299.333 53.035 C 298.913 53.018,297.286 52.525,297.181 52.383 C 297.127 52.310,296.994 52.233,296.885 52.212 C 296.577 52.152,295.333 50.836,295.333 50.570 C 295.333 50.440,295.267 50.333,295.187 50.333 C 294.764 50.333,294.667 47.376,294.667 34.577 L 294.667 21.333 293.861 21.333 C 293.418 21.333,293.024 21.363,292.986 21.399 M331.917 21.519 C 331.642 21.598,331.151 21.702,330.827 21.750 C 329.886 21.892,329.491 21.978,328.851 22.180 C 327.841 22.499,326.333 23.204,326.333 23.356 C 326.333 23.435,326.223 23.500,326.089 23.500 C 324.882 23.500,323.919 26.277,324.609 27.768 C 324.860 28.310,325.831 29.343,325.836 29.073 C 325.837 28.987,325.910 29.029,325.996 29.167 C 326.154 29.416,327.432 29.497,328.561 29.329 C 328.987 29.265,330.167 28.160,330.167 27.825 C 330.167 27.761,330.332 27.343,330.535 26.896 C 330.737 26.449,330.910 26.046,330.920 26.000 C 331.159 24.840,332.880 22.996,334.000 22.701 C 334.895 22.465,336.616 22.396,337.083 22.578 C 338.100 22.973,338.667 23.242,338.667 23.329 C 338.667 23.384,338.891 23.560,339.164 23.722 C 340.075 24.260,341.052 26.016,341.265 27.500 C 341.312 27.821,341.382 28.181,341.423 28.301 C 341.930 29.801,341.342 34.057,340.495 35.005 C 340.223 35.310,340.000 35.626,340.000 35.707 C 340.000 35.787,339.925 35.807,339.833 35.750 C 339.742 35.693,339.667 35.726,339.667 35.823 C 339.667 35.921,339.554 36.000,339.417 36.000 C 339.279 36.000,339.167 36.079,339.167 36.176 C 339.167 36.315,337.528 37.198,337.167 37.253 C 337.000 37.279,336.238 37.542,335.750 37.742 C 335.248 37.948,333.447 38.436,332.667 38.577 C 332.438 38.619,331.987 38.735,331.667 38.836 C 331.346 38.937,330.896 39.054,330.667 39.097 C 329.554 39.306,326.809 40.544,326.095 41.159 C 325.235 41.900,324.338 42.909,324.335 43.137 C 324.334 43.258,324.226 43.464,324.095 43.595 C 323.623 44.067,323.267 45.695,323.258 47.417 C 323.250 49.070,323.299 49.293,324.033 50.964 C 324.401 51.801,325.535 53.005,326.347 53.421 C 326.660 53.582,326.954 53.760,327.000 53.818 C 327.159 54.019,327.918 54.284,328.208 54.240 C 328.369 54.216,328.500 54.283,328.500 54.390 C 328.500 54.496,328.669 54.588,328.875 54.594 C 329.081 54.599,329.559 54.652,329.936 54.711 C 331.328 54.927,334.393 54.860,335.390 54.592 C 336.520 54.288,338.058 53.657,338.139 53.466 C 338.169 53.393,338.283 53.333,338.391 53.333 C 338.498 53.333,338.789 53.146,339.036 52.917 C 339.283 52.688,339.533 52.500,339.591 52.500 C 339.728 52.500,340.419 51.958,341.199 51.238 C 341.758 50.722,342.067 50.700,342.081 51.173 C 342.094 51.645,344.395 53.934,345.125 54.202 C 345.423 54.311,345.667 54.469,345.667 54.554 C 345.667 54.638,345.778 54.615,345.915 54.502 C 346.115 54.336,346.181 54.344,346.259 54.546 C 346.317 54.697,346.483 54.763,346.677 54.712 C 346.855 54.666,347.000 54.693,347.000 54.772 C 347.000 54.852,347.787 54.917,348.750 54.917 C 349.712 54.917,350.500 54.870,350.500 54.813 C 350.500 54.757,350.631 54.716,350.792 54.724 C 351.174 54.741,352.833 54.001,352.833 53.813 C 352.833 53.732,352.923 53.667,353.033 53.667 C 353.306 53.667,354.167 52.821,354.167 52.552 C 354.167 52.432,354.228 52.333,354.302 52.333 C 354.759 52.333,355.130 50.756,354.726 50.530 C 354.393 50.344,353.834 50.468,353.833 50.728 C 353.832 50.832,353.610 51.142,353.340 51.417 C 352.622 52.146,352.383 52.326,352.049 52.392 C 351.884 52.424,351.607 52.511,351.433 52.586 C 350.821 52.848,348.667 51.988,348.667 51.482 C 348.667 51.393,348.507 51.103,348.311 50.838 C 347.798 50.146,347.788 49.951,347.662 38.500 C 347.549 28.361,347.507 27.587,346.986 26.278 C 346.740 25.660,345.835 24.598,344.932 23.868 C 344.630 23.623,342.961 22.766,342.833 22.789 C 342.787 22.798,342.654 22.726,342.538 22.629 C 342.421 22.532,342.278 22.500,342.220 22.558 C 342.162 22.616,342.032 22.597,341.932 22.514 C 341.749 22.364,340.280 21.913,339.500 21.767 C 339.271 21.724,338.671 21.607,338.167 21.506 C 337.116 21.297,332.665 21.307,331.917 21.519 M213.731 23.247 C 214.777 23.681,216.463 24.902,216.384 25.169 C 216.366 25.229,216.564 25.512,216.824 25.797 C 217.084 26.081,217.255 26.356,217.204 26.407 C 217.153 26.458,217.189 26.500,217.285 26.500 C 217.740 26.500,218.583 29.743,218.780 32.250 C 219.327 39.220,218.448 49.167,217.285 49.167 C 217.209 49.167,217.188 49.233,217.238 49.314 C 217.289 49.396,217.218 49.555,217.081 49.668 C 216.945 49.781,216.833 49.945,216.833 50.032 C 216.833 50.376,215.791 51.592,215.391 51.715 C 215.328 51.734,215.072 51.938,214.823 52.167 C 214.071 52.859,213.833 53.022,213.833 52.845 C 213.833 52.753,213.721 52.720,213.583 52.773 C 213.446 52.826,213.333 52.957,213.333 53.065 C 213.333 53.174,213.202 53.273,213.042 53.286 C 212.881 53.299,212.338 53.432,211.833 53.581 C 210.999 53.828,210.458 53.833,209.083 53.609 C 208.575 53.526,207.427 53.132,207.333 53.009 C 207.287 52.949,206.969 52.768,206.625 52.608 C 206.281 52.449,206.000 52.246,206.000 52.159 C 206.000 52.071,205.923 52.000,205.828 52.000 C 205.647 52.000,204.000 50.365,204.000 50.185 C 204.000 50.127,203.831 49.889,203.625 49.657 C 203.419 49.424,203.169 49.087,203.071 48.908 C 202.973 48.730,202.748 48.321,202.571 48.000 C 202.394 47.679,202.190 47.372,202.116 47.318 C 202.043 47.264,202.001 47.151,202.024 47.068 C 202.081 46.862,201.820 46.104,201.654 45.996 C 201.581 45.949,201.485 45.724,201.442 45.496 C 201.362 45.080,201.261 44.742,201.053 44.208 C 200.940 43.915,200.905 43.770,200.763 43.000 C 200.721 42.771,200.604 42.321,200.503 42.000 C 200.219 41.095,200.112 36.083,200.362 35.354 C 200.475 35.022,200.548 34.680,200.524 34.594 C 200.465 34.389,200.983 32.335,201.192 31.942 C 201.283 31.773,201.317 31.595,201.268 31.546 C 201.220 31.497,201.303 31.223,201.454 30.937 C 201.604 30.651,201.739 30.279,201.754 30.110 C 201.768 29.941,201.854 29.753,201.946 29.693 C 202.037 29.633,202.340 29.096,202.619 28.500 C 204.331 24.853,207.179 22.753,210.513 22.679 C 211.373 22.660,212.109 22.613,212.148 22.574 C 212.187 22.535,212.301 22.563,212.401 22.637 C 212.501 22.711,213.100 22.986,213.731 23.247 M267.419 22.926 C 267.693 23.101,268.015 23.377,268.134 23.539 C 268.254 23.701,268.452 23.833,268.575 23.833 C 268.697 23.833,268.843 24.015,268.899 24.237 C 268.954 24.459,269.174 24.853,269.387 25.112 C 269.805 25.621,270.348 27.032,270.691 28.500 C 271.183 30.603,270.820 36.236,270.105 37.583 C 270.008 37.767,269.926 37.970,269.923 38.036 C 269.919 38.102,269.799 38.293,269.655 38.461 C 269.512 38.629,269.428 38.867,269.469 38.990 C 269.513 39.123,269.468 39.166,269.355 39.097 C 269.251 39.033,269.167 39.057,269.167 39.151 C 269.167 39.424,268.155 40.500,267.899 40.500 C 267.771 40.500,267.667 40.587,267.667 40.694 C 267.667 40.801,267.616 40.839,267.555 40.777 C 267.494 40.716,267.250 40.796,267.013 40.955 C 266.316 41.424,264.274 41.327,263.448 40.786 C 263.208 40.629,262.946 40.500,262.866 40.500 C 262.261 40.500,260.332 37.730,260.080 36.500 C 260.015 36.179,259.917 35.843,259.863 35.753 C 259.707 35.490,259.660 35.041,259.558 32.806 C 259.420 29.781,260.251 25.996,261.232 25.181 C 261.380 25.059,261.500 24.871,261.500 24.762 C 261.500 24.245,262.938 23.082,264.167 22.604 C 264.723 22.387,266.917 22.605,267.419 22.926 M341.658 39.843 C 341.659 41.992,341.623 44.050,341.579 44.417 C 341.403 45.886,341.111 47.450,340.898 48.052 C 340.775 48.402,340.689 48.740,340.708 48.802 C 340.746 48.931,339.011 51.667,338.891 51.667 C 338.848 51.667,338.869 51.573,338.937 51.458 C 339.005 51.344,338.837 51.475,338.564 51.750 C 337.909 52.411,337.159 52.922,336.886 52.894 C 336.765 52.881,336.667 52.925,336.667 52.991 C 336.667 53.132,336.678 53.130,334.792 53.236 C 333.824 53.290,333.333 53.258,333.333 53.141 C 333.333 53.044,333.232 53.003,333.109 53.050 C 332.986 53.098,332.782 52.993,332.656 52.818 C 332.530 52.643,332.333 52.500,332.219 52.500 C 332.105 52.500,331.940 52.366,331.852 52.202 C 331.764 52.038,331.503 51.802,331.271 51.678 C 331.039 51.554,330.862 51.407,330.877 51.351 C 330.892 51.295,330.802 51.066,330.678 50.841 C 329.880 49.397,329.788 45.480,330.541 44.981 C 330.626 44.925,330.697 44.813,330.699 44.731 C 330.707 44.413,331.211 43.333,331.351 43.333 C 331.433 43.333,331.500 43.248,331.500 43.144 C 331.500 43.040,331.688 42.781,331.917 42.569 C 332.146 42.356,332.333 42.104,332.333 42.008 C 332.333 41.912,332.390 41.833,332.460 41.833 C 332.530 41.833,332.808 41.627,333.079 41.375 C 333.680 40.816,334.999 39.961,335.003 40.129 C 335.004 40.195,335.060 40.164,335.128 40.059 C 335.195 39.954,335.839 39.558,336.560 39.179 C 337.280 38.799,338.105 38.319,338.393 38.111 C 338.681 37.903,339.120 37.632,339.369 37.508 C 339.618 37.384,339.775 37.207,339.717 37.113 C 339.655 37.013,339.719 36.984,339.874 37.044 C 340.024 37.102,340.259 37.007,340.427 36.822 C 340.587 36.645,340.801 36.500,340.902 36.500 C 341.004 36.500,341.185 36.343,341.305 36.150 C 341.648 35.601,341.658 35.711,341.658 39.843 " stroke="none" fill="#ec6c1c" fill-rule="evenodd"></path><path id="path1" d="M119.902 1.431 C 117.823 2.779,117.776 5.889,119.816 7.197 C 122.857 9.146,126.817 5.918,125.230 2.783 C 124.341 1.028,121.597 0.332,119.902 1.431 M39.924 12.042 C 39.013 14.961,38.421 16.358,37.470 17.843 C 36.189 19.841,34.251 21.470,32.194 22.278 C 31.654 22.490,31.500 22.638,31.500 22.942 C 31.500 23.332,31.508 23.333,33.583 23.333 L 35.667 23.333 35.672 36.042 C 35.677 49.019,35.745 50.680,36.316 51.800 C 36.742 52.635,37.847 53.622,38.813 54.030 C 39.237 54.208,39.733 54.421,39.917 54.503 C 41.400 55.162,48.333 55.167,48.333 54.509 C 48.333 54.442,48.620 54.300,48.971 54.195 C 50.918 53.612,53.718 50.980,53.224 50.197 C 52.873 49.639,52.503 49.800,51.254 51.053 C 48.878 53.436,45.721 53.527,43.450 51.277 C 41.722 49.565,41.674 49.120,41.670 34.875 L 41.667 23.333 46.417 23.333 L 51.167 23.333 51.167 22.583 L 51.167 21.833 46.417 21.833 L 41.667 21.833 41.667 16.833 L 41.667 11.833 40.828 11.833 C 40.303 11.833,39.965 11.911,39.924 12.042 M7.865 21.591 C 3.334 22.380,1.162 23.962,1.169 26.469 C 1.175 28.410,2.277 29.500,4.233 29.499 C 6.161 29.498,6.503 29.170,7.676 26.197 C 9.914 20.524,16.816 21.547,18.097 27.741 C 18.506 29.716,18.378 32.963,17.849 34.052 C 16.888 36.033,14.503 37.303,9.333 38.588 C 3.382 40.066,0.977 41.834,0.250 45.262 C -0.396 48.313,0.179 50.701,1.993 52.500 C 2.865 53.365,3.221 53.586,5.250 54.516 C 6.633 55.151,12.555 55.150,13.000 54.515 C 13.046 54.449,13.498 54.230,14.005 54.027 C 14.832 53.695,16.705 52.437,18.101 51.274 L 18.618 50.843 19.252 51.764 C 20.902 54.160,22.422 54.917,25.583 54.917 C 28.736 54.917,30.481 54.009,31.497 51.840 C 32.205 50.327,31.412 49.818,30.306 51.075 C 28.518 53.106,25.822 52.735,24.889 50.329 C 24.630 49.661,24.589 48.458,24.487 38.750 C 24.354 25.982,24.383 26.194,22.507 24.439 C 19.923 22.022,13.059 20.687,7.865 21.591 M56.750 21.956 C 52.144 22.563,51.966 22.615,52.040 23.333 C 52.079 23.708,52.179 23.762,53.035 23.868 C 55.461 24.169,56.646 25.605,57.008 28.679 C 57.301 31.167,57.131 48.329,56.803 49.417 C 56.156 51.563,55.192 52.429,52.993 52.841 C 51.462 53.127,51.500 53.106,51.500 53.661 L 51.500 54.167 60.083 54.167 L 68.667 54.167 68.667 53.605 C 68.667 53.078,68.625 53.036,68.002 52.936 C 63.735 52.254,63.347 51.238,63.338 40.746 C 63.330 29.315,64.282 26.213,68.397 24.266 C 73.302 21.946,77.899 24.468,78.696 29.917 C 79.289 33.971,78.896 49.867,78.192 50.322 C 78.111 50.374,77.993 50.583,77.929 50.787 C 77.639 51.718,75.910 52.695,74.125 52.938 C 73.359 53.042,73.333 53.063,73.333 53.606 L 73.333 54.167 81.833 54.167 L 90.333 54.167 90.332 53.625 C 90.331 53.093,90.310 53.078,89.177 52.805 C 85.317 51.874,85.069 51.276,84.907 42.495 C 84.671 29.671,85.616 26.110,89.807 24.039 L 91.066 23.417 93.325 23.417 C 97.255 23.417,99.006 24.728,100.035 28.446 C 100.471 30.019,100.704 45.366,100.334 48.151 C 99.939 51.131,98.887 52.362,96.324 52.841 C 94.796 53.127,94.833 53.107,94.833 53.661 L 94.833 54.167 103.417 54.167 L 112.000 54.167 112.000 53.605 C 112.000 53.078,111.958 53.036,111.335 52.936 C 110.018 52.726,108.770 52.142,108.050 51.400 C 106.769 50.079,106.791 50.289,106.671 38.500 C 106.568 28.345,106.556 28.059,106.203 27.108 C 103.495 19.832,91.948 19.233,84.900 26.003 L 84.217 26.660 83.574 25.726 C 79.635 20.006,71.176 19.695,64.831 25.036 L 63.699 25.989 63.504 24.619 C 63.396 23.866,63.214 22.837,63.100 22.333 L 62.893 21.417 62.071 21.389 C 61.620 21.374,59.225 21.629,56.750 21.956 M118.792 21.968 L 114.000 22.565 114.000 23.176 L 114.000 23.787 114.918 23.881 C 116.650 24.060,118.006 25.223,118.613 27.049 C 118.975 28.139,119.159 45.695,118.834 48.166 C 118.429 51.246,117.222 52.562,114.458 52.938 C 113.692 53.042,113.667 53.063,113.667 53.606 L 113.667 54.167 122.000 54.167 L 130.333 54.167 130.333 53.605 C 130.333 53.101,130.278 53.034,129.792 52.954 C 128.043 52.664,126.425 51.659,125.830 50.494 C 125.220 49.297,125.169 48.084,125.168 34.542 L 125.167 21.333 124.375 21.352 C 123.940 21.363,121.427 21.640,118.792 21.968 M136.958 21.962 L 132.667 22.559 132.667 23.173 L 132.667 23.787 133.584 23.881 C 135.318 24.060,136.675 25.225,137.278 27.049 C 137.637 28.136,137.826 45.271,137.509 47.978 C 137.127 51.229,135.867 52.607,132.958 52.952 C 132.190 53.044,132.167 53.063,132.167 53.607 L 132.167 54.167 140.761 54.167 L 149.354 54.167 149.302 53.647 C 149.252 53.151,149.194 53.113,148.058 52.825 C 145.299 52.127,144.330 51.103,143.982 48.516 C 143.703 46.440,143.888 32.276,144.215 30.626 C 145.595 23.681,148.738 21.909,152.732 25.824 C 155.313 28.353,157.625 28.297,158.327 25.689 C 159.855 20.015,148.211 19.747,144.134 25.363 L 143.417 26.350 143.276 25.217 C 143.199 24.593,143.049 23.483,142.943 22.750 L 142.750 21.417 142.000 21.391 C 141.587 21.377,139.319 21.634,136.958 21.962 M168.372 21.583 C 163.681 22.433,161.500 23.959,161.500 26.391 C 161.500 28.523,162.543 29.500,164.820 29.500 C 166.542 29.500,166.870 29.210,167.925 26.753 C 169.353 23.430,170.625 22.400,173.136 22.534 C 176.920 22.735,178.788 25.640,178.635 31.083 C 178.505 35.684,177.554 36.426,168.615 38.906 C 165.342 39.813,163.799 40.539,162.578 41.742 C 158.796 45.472,160.015 52.669,164.667 54.080 C 164.896 54.150,165.421 54.366,165.833 54.562 C 166.838 55.037,172.026 55.098,173.000 54.646 C 173.321 54.496,173.975 54.220,174.454 54.032 C 175.461 53.635,176.489 52.955,177.935 51.728 L 178.961 50.858 179.582 51.759 C 182.566 56.092,189.658 56.159,191.949 51.877 C 192.803 50.281,191.962 49.835,190.619 51.171 C 188.689 53.091,186.311 52.708,185.389 50.329 C 185.130 49.661,185.089 48.458,184.987 38.750 C 184.868 27.356,184.846 27.041,184.075 25.722 C 182.198 22.512,174.476 20.476,168.372 21.583 M18.342 44.584 C 18.109 47.037,17.710 48.386,16.767 49.899 C 13.026 55.900,5.693 53.094,7.001 46.162 C 7.513 43.446,9.192 41.640,13.426 39.250 C 14.887 38.425,16.608 37.356,17.250 36.874 L 18.417 35.998 18.467 39.374 C 18.494 41.231,18.438 43.575,18.342 44.584 M178.674 44.635 C 178.360 47.802,177.572 49.914,176.190 51.293 C 171.950 55.522,166.304 52.178,167.492 46.141 C 168.080 43.152,169.848 41.308,174.416 38.919 C 176.416 37.872,177.464 37.197,178.244 36.451 L 178.750 35.967 178.797 39.442 C 178.824 41.353,178.768 43.690,178.674 44.635 " stroke="none" fill="#a35c14" fill-rule="evenodd"></path><path id="path2" d="M366.414 23.333 C 366.414 35.662,366.434 40.706,366.458 34.542 C 366.483 28.377,366.483 18.290,366.458 12.125 C 366.434 5.960,366.414 11.004,366.414 23.333 M243.840 2.173 C 243.836 2.222,243.981 2.672,244.161 3.173 C 244.341 3.674,244.491 3.928,244.494 3.738 C 244.499 3.446,243.859 1.914,243.840 2.173 M244.208 5.542 C 244.029 6.031,244.034 6.052,244.255 5.760 C 244.467 5.480,244.592 5.000,244.453 5.000 C 244.427 5.000,244.317 5.244,244.208 5.542 M232.833 23.083 C 232.833 23.313,232.862 23.500,232.897 23.500 C 232.932 23.500,232.997 23.313,233.041 23.083 C 233.085 22.854,233.056 22.667,232.977 22.667 C 232.898 22.667,232.833 22.854,232.833 23.083 M332.324 23.792 L 331.750 24.417 332.375 23.842 C 332.957 23.308,333.077 23.167,332.949 23.167 C 332.922 23.167,332.640 23.448,332.324 23.792 M214.667 23.713 C 214.667 23.745,214.910 23.949,215.208 24.167 C 215.544 24.413,215.660 24.453,215.514 24.273 C 215.292 23.999,214.667 23.586,214.667 23.713 M217.833 24.171 C 217.833 24.277,217.983 24.404,218.167 24.452 C 218.350 24.500,218.500 24.597,218.500 24.668 C 218.500 24.739,218.616 24.842,218.759 24.897 C 219.132 25.040,218.904 24.740,218.328 24.330 C 218.044 24.127,217.833 24.060,217.833 24.171 M256.764 24.708 C 256.526 25.006,256.163 25.427,255.957 25.644 L 255.583 26.038 256.042 25.750 C 256.294 25.591,256.500 25.401,256.500 25.327 C 256.500 25.253,256.694 24.961,256.931 24.679 C 257.169 24.397,257.325 24.167,257.280 24.167 C 257.234 24.167,257.002 24.410,256.764 24.708 M204.909 25.208 L 204.250 25.917 204.958 25.258 C 205.348 24.895,205.667 24.577,205.667 24.550 C 205.667 24.423,205.522 24.550,204.909 25.208 M331.545 24.708 C 331.269 25.063,330.853 26.000,330.971 26.000 C 331.033 26.000,331.240 25.662,331.431 25.250 C 331.793 24.467,331.816 24.361,331.545 24.708 M346.037 24.997 C 346.150 25.178,346.355 25.370,346.492 25.423 C 346.630 25.475,346.562 25.327,346.342 25.093 C 345.862 24.582,345.757 24.549,346.037 24.997 M261.046 25.375 C 260.738 25.773,260.648 26.000,260.797 26.000 C 260.879 26.000,261.032 25.813,261.136 25.583 C 261.342 25.132,261.303 25.043,261.046 25.375 M274.483 25.917 C 274.764 26.460,274.995 26.762,274.994 26.583 C 274.993 26.492,274.839 26.229,274.652 26.000 C 274.425 25.723,274.369 25.695,274.483 25.917 M324.631 28.085 C 324.725 28.270,324.978 28.569,325.193 28.751 C 325.570 29.069,325.569 29.063,325.169 28.582 C 324.505 27.783,324.450 27.731,324.631 28.085 M238.074 38.250 C 238.074 41.183,238.097 42.360,238.125 40.865 C 238.152 39.369,238.152 36.969,238.125 35.531 C 238.097 34.093,238.074 35.317,238.074 38.250 M200.293 35.500 C 200.226 35.729,200.175 36.104,200.180 36.333 L 200.188 36.750 200.352 36.340 C 200.442 36.114,200.493 35.739,200.465 35.506 L 200.414 35.083 200.293 35.500 M200.209 37.417 C 200.211 37.783,200.245 37.914,200.285 37.706 C 200.324 37.499,200.323 37.199,200.281 37.040 C 200.239 36.880,200.207 37.050,200.209 37.417 M339.720 37.109 C 339.779 37.168,339.698 37.322,339.539 37.451 C 339.280 37.661,339.289 37.666,339.625 37.503 C 340.022 37.311,340.133 37.000,339.806 37.000 C 339.699 37.000,339.660 37.049,339.720 37.109 M255.667 37.629 C 255.666 37.901,256.864 39.201,257.739 39.878 C 258.112 40.167,258.285 40.250,258.125 40.063 C 257.964 39.876,257.889 39.661,257.958 39.585 C 258.027 39.509,257.983 39.505,257.860 39.576 C 257.608 39.721,256.495 38.738,255.981 37.917 C 255.809 37.642,255.668 37.512,255.667 37.629 M338.500 38.014 L 338.083 38.353 338.625 38.089 C 338.923 37.944,339.167 37.789,339.167 37.746 C 339.167 37.580,338.901 37.687,338.500 38.014 M200.212 38.833 C 200.212 39.246,200.245 39.415,200.284 39.208 C 200.324 39.002,200.324 38.665,200.284 38.458 C 200.245 38.252,200.212 38.421,200.212 38.833 M261.144 38.750 C 261.369 39.189,262.168 40.094,262.160 39.901 C 262.157 39.818,261.889 39.450,261.564 39.083 C 261.239 38.717,261.050 38.567,261.144 38.750 M268.302 40.020 C 268.056 40.284,267.911 40.500,267.979 40.500 C 268.048 40.500,268.320 40.275,268.583 40.000 C 268.847 39.725,268.992 39.509,268.906 39.520 C 268.820 39.531,268.549 39.756,268.302 40.020 M200.289 40.538 C 200.365 41.425,200.647 42.750,200.738 42.642 C 200.809 42.557,200.397 39.841,200.298 39.742 C 200.252 39.697,200.248 40.055,200.289 40.538 M271.917 40.588 C 271.265 41.123,271.440 41.119,272.167 40.583 C 272.477 40.354,272.661 40.169,272.574 40.173 C 272.487 40.176,272.192 40.363,271.917 40.588 M265.125 41.284 C 265.331 41.324,265.669 41.324,265.875 41.284 C 266.081 41.245,265.912 41.212,265.500 41.212 C 265.087 41.212,264.919 41.245,265.125 41.284 M331.027 43.757 C 330.748 44.370,330.801 44.501,331.103 43.944 C 331.244 43.683,331.328 43.439,331.290 43.401 C 331.252 43.363,331.134 43.523,331.027 43.757 M244.053 46.500 C 244.053 47.096,244.084 47.340,244.121 47.042 C 244.158 46.744,244.158 46.256,244.121 45.958 C 244.084 45.660,244.053 45.904,244.053 46.500 M366.370 47.750 C 366.371 47.933,366.430 48.308,366.500 48.583 C 366.614 49.032,366.628 49.041,366.630 48.667 C 366.632 48.438,366.573 48.063,366.500 47.833 C 366.395 47.507,366.367 47.489,366.370 47.750 M244.012 48.292 C 244.058 48.780,244.311 49.053,244.322 48.625 C 244.328 48.373,244.258 48.167,244.167 48.167 C 244.075 48.167,244.005 48.223,244.012 48.292 M347.862 49.583 C 347.859 49.767,347.921 50.067,348.000 50.250 C 348.183 50.675,348.183 50.237,348.000 49.667 C 347.893 49.332,347.866 49.315,347.862 49.583 M244.446 50.208 C 244.531 50.323,244.784 50.697,245.008 51.041 C 245.233 51.384,245.480 51.665,245.556 51.666 C 245.633 51.666,245.507 51.442,245.276 51.168 C 245.045 50.893,244.809 50.518,244.750 50.334 C 244.692 50.150,244.565 50.000,244.468 50.000 C 244.357 50.000,244.349 50.076,244.446 50.208 M330.582 50.665 C 330.724 50.939,330.850 51.220,330.862 51.290 C 330.889 51.449,331.396 51.827,331.475 51.747 C 331.507 51.715,331.339 51.433,331.100 51.120 C 330.862 50.808,330.667 50.465,330.667 50.359 C 330.667 50.253,330.590 50.167,330.496 50.167 C 330.398 50.167,330.436 50.381,330.582 50.665 M215.680 51.362 C 215.330 51.804,215.321 51.844,215.613 51.661 C 215.976 51.435,216.418 50.827,216.210 50.843 C 216.140 50.848,215.902 51.081,215.680 51.362 M278.617 51.245 C 278.782 51.471,278.986 51.659,279.071 51.661 C 279.155 51.664,279.049 51.479,278.833 51.250 C 278.334 50.718,278.232 50.716,278.617 51.245 M353.158 51.427 C 352.842 51.753,352.696 51.973,352.833 51.915 C 353.063 51.819,353.940 50.833,353.795 50.833 C 353.761 50.833,353.474 51.100,353.158 51.427 M367.917 51.667 C 368.340 52.033,368.776 52.333,368.885 52.333 C 368.994 52.332,368.858 52.193,368.583 52.023 C 368.308 51.853,367.940 51.554,367.766 51.357 C 367.591 51.161,367.380 51.000,367.297 51.000 C 367.214 51.000,367.493 51.300,367.917 51.667 M226.318 51.472 C 226.408 51.640,226.614 51.884,226.776 52.014 C 226.985 52.181,226.960 52.093,226.690 51.708 C 226.279 51.121,226.054 50.979,226.318 51.472 M358.781 51.675 C 358.523 51.945,358.380 52.167,358.464 52.167 C 358.617 52.167,359.019 51.754,359.234 51.375 C 359.416 51.056,359.294 51.136,358.781 51.675 M348.667 51.457 C 348.667 51.988,350.807 52.858,351.433 52.582 C 351.666 52.478,351.473 52.411,350.702 52.329 C 349.867 52.239,349.553 52.120,349.160 51.744 C 348.889 51.484,348.667 51.355,348.667 51.457 M314.167 51.966 C 314.746 52.480,315.667 52.927,315.667 52.695 C 315.667 52.628,315.460 52.488,315.208 52.383 C 314.956 52.279,314.487 52.026,314.167 51.821 L 313.583 51.448 314.167 51.966 M199.153 51.894 C 199.375 52.167,200.000 52.580,200.000 52.454 C 200.000 52.422,199.756 52.218,199.458 51.999 C 199.123 51.754,199.007 51.714,199.153 51.894 M296.436 51.906 C 296.532 52.158,297.000 52.403,297.000 52.202 C 297.000 52.135,296.853 51.988,296.673 51.876 C 296.403 51.707,296.361 51.713,296.436 51.906 M322.263 52.130 L 321.943 52.583 322.388 52.179 C 322.856 51.755,322.914 51.663,322.708 51.672 C 322.640 51.675,322.439 51.881,322.263 52.130 M245.928 52.054 C 245.976 52.177,246.105 52.281,246.216 52.286 C 246.326 52.290,246.567 52.352,246.750 52.423 C 247.225 52.608,247.013 52.425,246.379 52.103 C 245.971 51.895,245.863 51.883,245.928 52.054 M279.451 52.234 C 279.615 52.454,279.774 52.611,279.803 52.583 C 279.891 52.500,279.431 51.833,279.285 51.833 C 279.212 51.833,279.286 52.013,279.451 52.234 M214.375 52.362 C 214.077 52.547,213.833 52.768,213.833 52.855 C 213.833 52.946,213.921 52.940,214.042 52.840 C 214.156 52.745,214.438 52.519,214.667 52.339 C 215.197 51.922,215.071 51.932,214.375 52.362 M218.500 52.333 C 218.179 52.509,217.977 52.656,218.050 52.660 C 218.227 52.669,219.167 52.180,219.167 52.079 C 219.167 51.970,219.157 51.974,218.500 52.333 M297.167 52.307 C 297.167 52.492,298.472 52.917,298.612 52.777 C 298.655 52.734,298.441 52.645,298.137 52.580 C 297.832 52.515,297.490 52.386,297.375 52.294 C 297.233 52.179,297.167 52.184,297.167 52.307 M319.708 52.370 C 319.502 52.470,319.333 52.617,319.333 52.698 C 319.333 52.838,319.611 52.719,320.167 52.341 C 320.493 52.120,320.188 52.139,319.708 52.370 M337.000 52.750 C 336.736 53.068,336.984 53.065,337.407 52.745 C 337.666 52.549,337.678 52.500,337.469 52.500 C 337.325 52.500,337.114 52.612,337.000 52.750 M284.083 53.000 C 283.873 53.090,283.842 53.143,284.000 53.143 C 284.137 53.143,284.400 53.079,284.583 53.000 C 284.793 52.910,284.824 52.857,284.667 52.857 C 284.529 52.857,284.267 52.921,284.083 53.000 M316.875 52.955 C 317.219 52.991,317.781 52.991,318.125 52.955 C 318.469 52.919,318.188 52.889,317.500 52.889 C 316.813 52.889,316.531 52.919,316.875 52.955 M229.917 53.167 C 229.973 53.258,230.165 53.333,230.343 53.333 C 230.521 53.333,230.667 53.258,230.667 53.167 C 230.667 53.075,230.475 53.000,230.240 53.000 C 229.998 53.000,229.858 53.072,229.917 53.167 M230.872 53.500 C 230.872 53.821,230.906 53.952,230.948 53.792 C 230.990 53.631,230.990 53.369,230.948 53.208 C 230.906 53.048,230.872 53.179,230.872 53.500 M334.292 53.284 C 334.498 53.324,334.835 53.324,335.042 53.284 C 335.248 53.245,335.079 53.212,334.667 53.212 C 334.254 53.212,334.085 53.245,334.292 53.284 M210.583 53.489 C 209.427 53.571,209.324 53.602,209.807 53.725 C 210.374 53.869,211.593 53.755,212.230 53.497 C 212.638 53.332,212.783 53.333,210.583 53.489 M254.740 53.575 C 254.428 53.808,254.430 53.813,254.794 53.722 C 255.002 53.669,255.213 53.560,255.262 53.480 C 255.403 53.252,255.098 53.307,254.740 53.575 M335.272 54.596 C 334.826 54.718,334.413 54.868,334.355 54.929 C 334.297 54.991,334.400 54.999,334.583 54.946 C 334.767 54.894,335.198 54.801,335.542 54.740 C 335.885 54.679,336.167 54.563,336.167 54.481 C 336.167 54.400,336.148 54.343,336.125 54.354 C 336.102 54.365,335.718 54.474,335.272 54.596 M204.750 54.614 C 204.933 54.654,205.339 54.755,205.652 54.838 C 206.014 54.934,206.164 54.930,206.062 54.829 C 205.975 54.742,205.569 54.641,205.160 54.605 C 204.751 54.569,204.567 54.573,204.750 54.614 M227.133 54.690 C 227.014 54.764,227.442 54.779,228.083 54.723 C 228.725 54.666,229.286 54.589,229.330 54.550 C 229.479 54.418,227.349 54.554,227.133 54.690 M310.579 54.660 C 310.638 54.755,310.882 54.833,311.121 54.833 C 311.643 54.833,311.583 54.754,310.944 54.600 C 310.635 54.526,310.509 54.546,310.579 54.660 M317.605 54.617 C 317.541 54.681,316.460 54.787,315.202 54.851 L 312.917 54.968 315.250 54.915 C 317.293 54.869,319.532 54.560,318.153 54.514 C 317.916 54.506,317.670 54.553,317.605 54.617 M328.917 54.659 C 329.237 54.804,330.129 54.898,329.986 54.772 C 329.948 54.738,329.617 54.665,329.250 54.609 C 328.785 54.539,328.684 54.554,328.917 54.659 M211.250 54.838 C 211.027 54.936,211.166 54.952,211.667 54.886 C 212.079 54.832,212.448 54.760,212.486 54.727 C 212.631 54.601,211.568 54.697,211.250 54.838 M224.775 54.857 C 224.331 54.923,223.922 55.022,223.867 55.077 C 223.748 55.197,225.504 55.017,226.333 54.826 L 226.917 54.691 226.250 54.714 C 225.883 54.726,225.220 54.790,224.775 54.857 M330.166 54.875 C 330.166 54.944,331.085 54.987,332.208 54.971 C 334.281 54.941,334.034 54.876,331.541 54.795 C 330.785 54.770,330.166 54.806,330.166 54.875 M207.798 54.957 C 208.375 54.990,209.275 54.989,209.798 54.956 C 210.322 54.923,209.850 54.897,208.750 54.897 C 207.650 54.897,207.222 54.924,207.798 54.957 M273.667 54.953 C 273.667 55.035,273.929 55.356,274.250 55.667 C 274.571 55.978,274.833 56.181,274.833 56.119 C 274.833 56.057,274.571 55.736,274.250 55.405 C 273.929 55.075,273.667 54.871,273.667 54.953 M348.047 54.956 C 348.485 54.990,349.160 54.990,349.547 54.955 C 349.934 54.920,349.575 54.892,348.750 54.892 C 347.925 54.893,347.609 54.922,348.047 54.956 M222.667 55.167 C 222.337 55.272,222.319 55.300,222.583 55.300 C 222.767 55.300,223.104 55.240,223.333 55.167 C 223.663 55.061,223.681 55.033,223.417 55.033 C 223.233 55.033,222.896 55.093,222.667 55.167 M257.000 55.833 C 257.000 55.925,257.229 56.000,257.510 56.000 C 257.807 56.000,257.977 55.931,257.917 55.833 C 257.860 55.742,257.631 55.667,257.407 55.667 C 257.183 55.667,257.000 55.742,257.000 55.833 M261.042 56.750 C 261.044 57.117,261.078 57.247,261.118 57.040 C 261.158 56.832,261.156 56.532,261.115 56.373 C 261.073 56.214,261.040 56.383,261.042 56.750 M259.007 56.417 C 259.010 56.606,259.994 57.729,260.080 57.641 C 260.110 57.609,259.881 57.283,259.570 56.917 C 259.259 56.550,259.006 56.325,259.007 56.417 M251.675 56.900 C 251.558 57.120,251.502 57.402,251.551 57.525 C 251.605 57.661,251.646 57.615,251.654 57.408 C 251.661 57.220,251.755 56.978,251.864 56.869 C 251.972 56.761,252.022 56.634,251.975 56.586 C 251.928 56.539,251.793 56.680,251.675 56.900 M251.503 61.431 C 251.504 61.606,251.581 61.862,251.674 62.000 C 251.798 62.183,251.813 62.115,251.732 61.750 C 251.595 61.137,251.499 61.004,251.503 61.431 M253.167 64.583 C 253.382 64.813,253.586 65.000,253.620 65.000 C 253.759 65.000,253.072 64.177,252.929 64.172 C 252.845 64.169,252.951 64.354,253.167 64.583 M256.181 66.723 C 256.341 66.853,257.667 67.324,257.667 67.251 C 257.667 67.151,256.521 66.667,256.285 66.667 C 256.189 66.667,256.142 66.692,256.181 66.723 " stroke="none" fill="#f06418" fill-rule="evenodd"></path><path id="path3" d="M366.414 23.333 C 366.414 35.662,366.434 40.706,366.458 34.542 C 366.483 28.377,366.483 18.290,366.458 12.125 C 366.434 5.960,366.414 11.004,366.414 23.333 M243.840 2.173 C 243.836 2.222,243.981 2.672,244.161 3.173 C 244.341 3.674,244.491 3.928,244.494 3.738 C 244.499 3.446,243.859 1.914,243.840 2.173 M244.208 5.542 C 244.029 6.031,244.034 6.052,244.255 5.760 C 244.467 5.480,244.592 5.000,244.453 5.000 C 244.427 5.000,244.317 5.244,244.208 5.542 M232.833 23.083 C 232.833 23.313,232.862 23.500,232.897 23.500 C 232.932 23.500,232.997 23.313,233.041 23.083 C 233.085 22.854,233.056 22.667,232.977 22.667 C 232.898 22.667,232.833 22.854,232.833 23.083 M332.324 23.792 L 331.750 24.417 332.375 23.842 C 332.957 23.308,333.077 23.167,332.949 23.167 C 332.922 23.167,332.640 23.448,332.324 23.792 M214.667 23.713 C 214.667 23.745,214.910 23.949,215.208 24.167 C 215.544 24.413,215.660 24.453,215.514 24.273 C 215.292 23.999,214.667 23.586,214.667 23.713 M217.833 24.171 C 217.833 24.277,217.983 24.404,218.167 24.452 C 218.350 24.500,218.500 24.597,218.500 24.668 C 218.500 24.739,218.616 24.842,218.759 24.897 C 219.132 25.040,218.904 24.740,218.328 24.330 C 218.044 24.127,217.833 24.060,217.833 24.171 M256.764 24.708 C 256.526 25.006,256.163 25.427,255.957 25.644 L 255.583 26.038 256.042 25.750 C 256.294 25.591,256.500 25.401,256.500 25.327 C 256.500 25.253,256.694 24.961,256.931 24.679 C 257.169 24.397,257.325 24.167,257.280 24.167 C 257.234 24.167,257.002 24.410,256.764 24.708 M204.909 25.208 L 204.250 25.917 204.958 25.258 C 205.348 24.895,205.667 24.577,205.667 24.550 C 205.667 24.423,205.522 24.550,204.909 25.208 M331.545 24.708 C 331.269 25.063,330.853 26.000,330.971 26.000 C 331.033 26.000,331.240 25.662,331.431 25.250 C 331.793 24.467,331.816 24.361,331.545 24.708 M346.037 24.997 C 346.150 25.178,346.355 25.370,346.492 25.423 C 346.630 25.475,346.562 25.327,346.342 25.093 C 345.862 24.582,345.757 24.549,346.037 24.997 M261.046 25.375 C 260.738 25.773,260.648 26.000,260.797 26.000 C 260.879 26.000,261.032 25.813,261.136 25.583 C 261.342 25.132,261.303 25.043,261.046 25.375 M274.483 25.917 C 274.764 26.460,274.995 26.762,274.994 26.583 C 274.993 26.492,274.839 26.229,274.652 26.000 C 274.425 25.723,274.369 25.695,274.483 25.917 M324.631 28.085 C 324.725 28.270,324.978 28.569,325.193 28.751 C 325.570 29.069,325.569 29.063,325.169 28.582 C 324.505 27.783,324.450 27.731,324.631 28.085 M238.074 38.250 C 238.074 41.183,238.097 42.360,238.125 40.865 C 238.152 39.369,238.152 36.969,238.125 35.531 C 238.097 34.093,238.074 35.317,238.074 38.250 M200.293 35.500 C 200.226 35.729,200.175 36.104,200.180 36.333 L 200.188 36.750 200.352 36.340 C 200.442 36.114,200.493 35.739,200.465 35.506 L 200.414 35.083 200.293 35.500 M200.209 37.417 C 200.211 37.783,200.245 37.914,200.285 37.706 C 200.324 37.499,200.323 37.199,200.281 37.040 C 200.239 36.880,200.207 37.050,200.209 37.417 M339.720 37.109 C 339.779 37.168,339.698 37.322,339.539 37.451 C 339.280 37.661,339.289 37.666,339.625 37.503 C 340.022 37.311,340.133 37.000,339.806 37.000 C 339.699 37.000,339.660 37.049,339.720 37.109 M255.667 37.629 C 255.666 37.901,256.864 39.201,257.739 39.878 C 258.112 40.167,258.285 40.250,258.125 40.063 C 257.964 39.876,257.889 39.661,257.958 39.585 C 258.027 39.509,257.983 39.505,257.860 39.576 C 257.608 39.721,256.495 38.738,255.981 37.917 C 255.809 37.642,255.668 37.512,255.667 37.629 M338.500 38.014 L 338.083 38.353 338.625 38.089 C 338.923 37.944,339.167 37.789,339.167 37.746 C 339.167 37.580,338.901 37.687,338.500 38.014 M200.212 38.833 C 200.212 39.246,200.245 39.415,200.284 39.208 C 200.324 39.002,200.324 38.665,200.284 38.458 C 200.245 38.252,200.212 38.421,200.212 38.833 M261.144 38.750 C 261.369 39.189,262.168 40.094,262.160 39.901 C 262.157 39.818,261.889 39.450,261.564 39.083 C 261.239 38.717,261.050 38.567,261.144 38.750 M268.302 40.020 C 268.056 40.284,267.911 40.500,267.979 40.500 C 268.048 40.500,268.320 40.275,268.583 40.000 C 268.847 39.725,268.992 39.509,268.906 39.520 C 268.820 39.531,268.549 39.756,268.302 40.020 M200.289 40.538 C 200.365 41.425,200.647 42.750,200.738 42.642 C 200.809 42.557,200.397 39.841,200.298 39.742 C 200.252 39.697,200.248 40.055,200.289 40.538 M271.917 40.588 C 271.265 41.123,271.440 41.119,272.167 40.583 C 272.477 40.354,272.661 40.169,272.574 40.173 C 272.487 40.176,272.192 40.363,271.917 40.588 M265.125 41.284 C 265.331 41.324,265.669 41.324,265.875 41.284 C 266.081 41.245,265.912 41.212,265.500 41.212 C 265.087 41.212,264.919 41.245,265.125 41.284 M331.027 43.757 C 330.748 44.370,330.801 44.501,331.103 43.944 C 331.244 43.683,331.328 43.439,331.290 43.401 C 331.252 43.363,331.134 43.523,331.027 43.757 M244.053 46.500 C 244.053 47.096,244.084 47.340,244.121 47.042 C 244.158 46.744,244.158 46.256,244.121 45.958 C 244.084 45.660,244.053 45.904,244.053 46.500 M366.370 47.750 C 366.371 47.933,366.430 48.308,366.500 48.583 C 366.614 49.032,366.628 49.041,366.630 48.667 C 366.632 48.438,366.573 48.063,366.500 47.833 C 366.395 47.507,366.367 47.489,366.370 47.750 M244.012 48.292 C 244.058 48.780,244.311 49.053,244.322 48.625 C 244.328 48.373,244.258 48.167,244.167 48.167 C 244.075 48.167,244.005 48.223,244.012 48.292 M347.862 49.583 C 347.859 49.767,347.921 50.067,348.000 50.250 C 348.183 50.675,348.183 50.237,348.000 49.667 C 347.893 49.332,347.866 49.315,347.862 49.583 M244.446 50.208 C 244.531 50.323,244.784 50.697,245.008 51.041 C 245.233 51.384,245.480 51.665,245.556 51.666 C 245.633 51.666,245.507 51.442,245.276 51.168 C 245.045 50.893,244.809 50.518,244.750 50.334 C 244.692 50.150,244.565 50.000,244.468 50.000 C 244.357 50.000,244.349 50.076,244.446 50.208 M330.582 50.665 C 330.724 50.939,330.850 51.220,330.862 51.290 C 330.889 51.449,331.396 51.827,331.475 51.747 C 331.507 51.715,331.339 51.433,331.100 51.120 C 330.862 50.808,330.667 50.465,330.667 50.359 C 330.667 50.253,330.590 50.167,330.496 50.167 C 330.398 50.167,330.436 50.381,330.582 50.665 M215.680 51.362 C 215.330 51.804,215.321 51.844,215.613 51.661 C 215.976 51.435,216.418 50.827,216.210 50.843 C 216.140 50.848,215.902 51.081,215.680 51.362 M278.617 51.245 C 278.782 51.471,278.986 51.659,279.071 51.661 C 279.155 51.664,279.049 51.479,278.833 51.250 C 278.334 50.718,278.232 50.716,278.617 51.245 M353.158 51.427 C 352.842 51.753,352.696 51.973,352.833 51.915 C 353.063 51.819,353.940 50.833,353.795 50.833 C 353.761 50.833,353.474 51.100,353.158 51.427 M367.917 51.667 C 368.340 52.033,368.776 52.333,368.885 52.333 C 368.994 52.332,368.858 52.193,368.583 52.023 C 368.308 51.853,367.940 51.554,367.766 51.357 C 367.591 51.161,367.380 51.000,367.297 51.000 C 367.214 51.000,367.493 51.300,367.917 51.667 M226.318 51.472 C 226.408 51.640,226.614 51.884,226.776 52.014 C 226.985 52.181,226.960 52.093,226.690 51.708 C 226.279 51.121,226.054 50.979,226.318 51.472 M358.781 51.675 C 358.523 51.945,358.380 52.167,358.464 52.167 C 358.617 52.167,359.019 51.754,359.234 51.375 C 359.416 51.056,359.294 51.136,358.781 51.675 M348.667 51.457 C 348.667 51.988,350.807 52.858,351.433 52.582 C 351.666 52.478,351.473 52.411,350.702 52.329 C 349.867 52.239,349.553 52.120,349.160 51.744 C 348.889 51.484,348.667 51.355,348.667 51.457 M314.167 51.966 C 314.746 52.480,315.667 52.927,315.667 52.695 C 315.667 52.628,315.460 52.488,315.208 52.383 C 314.956 52.279,314.487 52.026,314.167 51.821 L 313.583 51.448 314.167 51.966 M199.153 51.894 C 199.375 52.167,200.000 52.580,200.000 52.454 C 200.000 52.422,199.756 52.218,199.458 51.999 C 199.123 51.754,199.007 51.714,199.153 51.894 M296.436 51.906 C 296.532 52.158,297.000 52.403,297.000 52.202 C 297.000 52.135,296.853 51.988,296.673 51.876 C 296.403 51.707,296.361 51.713,296.436 51.906 M322.263 52.130 L 321.943 52.583 322.388 52.179 C 322.856 51.755,322.914 51.663,322.708 51.672 C 322.640 51.675,322.439 51.881,322.263 52.130 M245.928 52.054 C 245.976 52.177,246.105 52.281,246.216 52.286 C 246.326 52.290,246.567 52.352,246.750 52.423 C 247.225 52.608,247.013 52.425,246.379 52.103 C 245.971 51.895,245.863 51.883,245.928 52.054 M279.451 52.234 C 279.615 52.454,279.774 52.611,279.803 52.583 C 279.891 52.500,279.431 51.833,279.285 51.833 C 279.212 51.833,279.286 52.013,279.451 52.234 M214.375 52.362 C 214.077 52.547,213.833 52.768,213.833 52.855 C 213.833 52.946,213.921 52.940,214.042 52.840 C 214.156 52.745,214.438 52.519,214.667 52.339 C 215.197 51.922,215.071 51.932,214.375 52.362 M218.500 52.333 C 218.179 52.509,217.977 52.656,218.050 52.660 C 218.227 52.669,219.167 52.180,219.167 52.079 C 219.167 51.970,219.157 51.974,218.500 52.333 M297.167 52.307 C 297.167 52.492,298.472 52.917,298.612 52.777 C 298.655 52.734,298.441 52.645,298.137 52.580 C 297.832 52.515,297.490 52.386,297.375 52.294 C 297.233 52.179,297.167 52.184,297.167 52.307 M319.708 52.370 C 319.502 52.470,319.333 52.617,319.333 52.698 C 319.333 52.838,319.611 52.719,320.167 52.341 C 320.493 52.120,320.188 52.139,319.708 52.370 M337.000 52.750 C 336.736 53.068,336.984 53.065,337.407 52.745 C 337.666 52.549,337.678 52.500,337.469 52.500 C 337.325 52.500,337.114 52.612,337.000 52.750 M284.083 53.000 C 283.873 53.090,283.842 53.143,284.000 53.143 C 284.137 53.143,284.400 53.079,284.583 53.000 C 284.793 52.910,284.824 52.857,284.667 52.857 C 284.529 52.857,284.267 52.921,284.083 53.000 M316.875 52.955 C 317.219 52.991,317.781 52.991,318.125 52.955 C 318.469 52.919,318.188 52.889,317.500 52.889 C 316.813 52.889,316.531 52.919,316.875 52.955 M229.917 53.167 C 229.973 53.258,230.165 53.333,230.343 53.333 C 230.521 53.333,230.667 53.258,230.667 53.167 C 230.667 53.075,230.475 53.000,230.240 53.000 C 229.998 53.000,229.858 53.072,229.917 53.167 M230.872 53.500 C 230.872 53.821,230.906 53.952,230.948 53.792 C 230.990 53.631,230.990 53.369,230.948 53.208 C 230.906 53.048,230.872 53.179,230.872 53.500 M334.292 53.284 C 334.498 53.324,334.835 53.324,335.042 53.284 C 335.248 53.245,335.079 53.212,334.667 53.212 C 334.254 53.212,334.085 53.245,334.292 53.284 M210.583 53.489 C 209.427 53.571,209.324 53.602,209.807 53.725 C 210.374 53.869,211.593 53.755,212.230 53.497 C 212.638 53.332,212.783 53.333,210.583 53.489 M254.740 53.575 C 254.428 53.808,254.430 53.813,254.794 53.722 C 255.002 53.669,255.213 53.560,255.262 53.480 C 255.403 53.252,255.098 53.307,254.740 53.575 M335.272 54.596 C 334.826 54.718,334.413 54.868,334.355 54.929 C 334.297 54.991,334.400 54.999,334.583 54.946 C 334.767 54.894,335.198 54.801,335.542 54.740 C 335.885 54.679,336.167 54.563,336.167 54.481 C 336.167 54.400,336.148 54.343,336.125 54.354 C 336.102 54.365,335.718 54.474,335.272 54.596 M204.750 54.614 C 204.933 54.654,205.339 54.755,205.652 54.838 C 206.014 54.934,206.164 54.930,206.062 54.829 C 205.975 54.742,205.569 54.641,205.160 54.605 C 204.751 54.569,204.567 54.573,204.750 54.614 M227.133 54.690 C 227.014 54.764,227.442 54.779,228.083 54.723 C 228.725 54.666,229.286 54.589,229.330 54.550 C 229.479 54.418,227.349 54.554,227.133 54.690 M310.579 54.660 C 310.638 54.755,310.882 54.833,311.121 54.833 C 311.643 54.833,311.583 54.754,310.944 54.600 C 310.635 54.526,310.509 54.546,310.579 54.660 M317.605 54.617 C 317.541 54.681,316.460 54.787,315.202 54.851 L 312.917 54.968 315.250 54.915 C 317.293 54.869,319.532 54.560,318.153 54.514 C 317.916 54.506,317.670 54.553,317.605 54.617 M328.917 54.659 C 329.237 54.804,330.129 54.898,329.986 54.772 C 329.948 54.738,329.617 54.665,329.250 54.609 C 328.785 54.539,328.684 54.554,328.917 54.659 M211.250 54.838 C 211.027 54.936,211.166 54.952,211.667 54.886 C 212.079 54.832,212.448 54.760,212.486 54.727 C 212.631 54.601,211.568 54.697,211.250 54.838 M224.775 54.857 C 224.331 54.923,223.922 55.022,223.867 55.077 C 223.748 55.197,225.504 55.017,226.333 54.826 L 226.917 54.691 226.250 54.714 C 225.883 54.726,225.220 54.790,224.775 54.857 M330.166 54.875 C 330.166 54.944,331.085 54.987,332.208 54.971 C 334.281 54.941,334.034 54.876,331.541 54.795 C 330.785 54.770,330.166 54.806,330.166 54.875 M207.798 54.957 C 208.375 54.990,209.275 54.989,209.798 54.956 C 210.322 54.923,209.850 54.897,208.750 54.897 C 207.650 54.897,207.222 54.924,207.798 54.957 M273.667 54.953 C 273.667 55.035,273.929 55.356,274.250 55.667 C 274.571 55.978,274.833 56.181,274.833 56.119 C 274.833 56.057,274.571 55.736,274.250 55.405 C 273.929 55.075,273.667 54.871,273.667 54.953 M348.047 54.956 C 348.485 54.990,349.160 54.990,349.547 54.955 C 349.934 54.920,349.575 54.892,348.750 54.892 C 347.925 54.893,347.609 54.922,348.047 54.956 M222.667 55.167 C 222.337 55.272,222.319 55.300,222.583 55.300 C 222.767 55.300,223.104 55.240,223.333 55.167 C 223.663 55.061,223.681 55.033,223.417 55.033 C 223.233 55.033,222.896 55.093,222.667 55.167 M257.000 55.833 C 257.000 55.925,257.229 56.000,257.510 56.000 C 257.807 56.000,257.977 55.931,257.917 55.833 C 257.860 55.742,257.631 55.667,257.407 55.667 C 257.183 55.667,257.000 55.742,257.000 55.833 M261.042 56.750 C 261.044 57.117,261.078 57.247,261.118 57.040 C 261.158 56.832,261.156 56.532,261.115 56.373 C 261.073 56.214,261.040 56.383,261.042 56.750 M259.007 56.417 C 259.010 56.606,259.994 57.729,260.080 57.641 C 260.110 57.609,259.881 57.283,259.570 56.917 C 259.259 56.550,259.006 56.325,259.007 56.417 M251.675 56.900 C 251.558 57.120,251.502 57.402,251.551 57.525 C 251.605 57.661,251.646 57.615,251.654 57.408 C 251.661 57.220,251.755 56.978,251.864 56.869 C 251.972 56.761,252.022 56.634,251.975 56.586 C 251.928 56.539,251.793 56.680,251.675 56.900 M251.503 61.431 C 251.504 61.606,251.581 61.862,251.674 62.000 C 251.798 62.183,251.813 62.115,251.732 61.750 C 251.595 61.137,251.499 61.004,251.503 61.431 M253.167 64.583 C 253.382 64.813,253.586 65.000,253.620 65.000 C 253.759 65.000,253.072 64.177,252.929 64.172 C 252.845 64.169,252.951 64.354,253.167 64.583 M256.181 66.723 C 256.341 66.853,257.667 67.324,257.667 67.251 C 257.667 67.151,256.521 66.667,256.285 66.667 C 256.189 66.667,256.142 66.692,256.181 66.723 " stroke="none" fill="#f06418" fill-rule="evenodd"></path><path id="path4" d="M366.414 23.333 C 366.414 35.662,366.434 40.706,366.458 34.542 C 366.483 28.377,366.483 18.290,366.458 12.125 C 366.434 5.960,366.414 11.004,366.414 23.333 M243.840 2.173 C 243.836 2.222,243.981 2.672,244.161 3.173 C 244.341 3.674,244.491 3.928,244.494 3.738 C 244.499 3.446,243.859 1.914,243.840 2.173 M244.208 5.542 C 244.029 6.031,244.034 6.052,244.255 5.760 C 244.467 5.480,244.592 5.000,244.453 5.000 C 244.427 5.000,244.317 5.244,244.208 5.542 M232.833 23.083 C 232.833 23.313,232.862 23.500,232.897 23.500 C 232.932 23.500,232.997 23.313,233.041 23.083 C 233.085 22.854,233.056 22.667,232.977 22.667 C 232.898 22.667,232.833 22.854,232.833 23.083 M332.324 23.792 L 331.750 24.417 332.375 23.842 C 332.957 23.308,333.077 23.167,332.949 23.167 C 332.922 23.167,332.640 23.448,332.324 23.792 M214.667 23.713 C 214.667 23.745,214.910 23.949,215.208 24.167 C 215.544 24.413,215.660 24.453,215.514 24.273 C 215.292 23.999,214.667 23.586,214.667 23.713 M217.833 24.171 C 217.833 24.277,217.983 24.404,218.167 24.452 C 218.350 24.500,218.500 24.597,218.500 24.668 C 218.500 24.739,218.616 24.842,218.759 24.897 C 219.132 25.040,218.904 24.740,218.328 24.330 C 218.044 24.127,217.833 24.060,217.833 24.171 M256.764 24.708 C 256.526 25.006,256.163 25.427,255.957 25.644 L 255.583 26.038 256.042 25.750 C 256.294 25.591,256.500 25.401,256.500 25.327 C 256.500 25.253,256.694 24.961,256.931 24.679 C 257.169 24.397,257.325 24.167,257.280 24.167 C 257.234 24.167,257.002 24.410,256.764 24.708 M204.909 25.208 L 204.250 25.917 204.958 25.258 C 205.348 24.895,205.667 24.577,205.667 24.550 C 205.667 24.423,205.522 24.550,204.909 25.208 M331.545 24.708 C 331.269 25.063,330.853 26.000,330.971 26.000 C 331.033 26.000,331.240 25.662,331.431 25.250 C 331.793 24.467,331.816 24.361,331.545 24.708 M346.037 24.997 C 346.150 25.178,346.355 25.370,346.492 25.423 C 346.630 25.475,346.562 25.327,346.342 25.093 C 345.862 24.582,345.757 24.549,346.037 24.997 M261.046 25.375 C 260.738 25.773,260.648 26.000,260.797 26.000 C 260.879 26.000,261.032 25.813,261.136 25.583 C 261.342 25.132,261.303 25.043,261.046 25.375 M274.483 25.917 C 274.764 26.460,274.995 26.762,274.994 26.583 C 274.993 26.492,274.839 26.229,274.652 26.000 C 274.425 25.723,274.369 25.695,274.483 25.917 M324.631 28.085 C 324.725 28.270,324.978 28.569,325.193 28.751 C 325.570 29.069,325.569 29.063,325.169 28.582 C 324.505 27.783,324.450 27.731,324.631 28.085 M238.074 38.250 C 238.074 41.183,238.097 42.360,238.125 40.865 C 238.152 39.369,238.152 36.969,238.125 35.531 C 238.097 34.093,238.074 35.317,238.074 38.250 M200.293 35.500 C 200.226 35.729,200.175 36.104,200.180 36.333 L 200.188 36.750 200.352 36.340 C 200.442 36.114,200.493 35.739,200.465 35.506 L 200.414 35.083 200.293 35.500 M200.209 37.417 C 200.211 37.783,200.245 37.914,200.285 37.706 C 200.324 37.499,200.323 37.199,200.281 37.040 C 200.239 36.880,200.207 37.050,200.209 37.417 M339.720 37.109 C 339.779 37.168,339.698 37.322,339.539 37.451 C 339.280 37.661,339.289 37.666,339.625 37.503 C 340.022 37.311,340.133 37.000,339.806 37.000 C 339.699 37.000,339.660 37.049,339.720 37.109 M255.667 37.629 C 255.666 37.901,256.864 39.201,257.739 39.878 C 258.112 40.167,258.285 40.250,258.125 40.063 C 257.964 39.876,257.889 39.661,257.958 39.585 C 258.027 39.509,257.983 39.505,257.860 39.576 C 257.608 39.721,256.495 38.738,255.981 37.917 C 255.809 37.642,255.668 37.512,255.667 37.629 M338.500 38.014 L 338.083 38.353 338.625 38.089 C 338.923 37.944,339.167 37.789,339.167 37.746 C 339.167 37.580,338.901 37.687,338.500 38.014 M200.212 38.833 C 200.212 39.246,200.245 39.415,200.284 39.208 C 200.324 39.002,200.324 38.665,200.284 38.458 C 200.245 38.252,200.212 38.421,200.212 38.833 M261.144 38.750 C 261.369 39.189,262.168 40.094,262.160 39.901 C 262.157 39.818,261.889 39.450,261.564 39.083 C 261.239 38.717,261.050 38.567,261.144 38.750 M268.302 40.020 C 268.056 40.284,267.911 40.500,267.979 40.500 C 268.048 40.500,268.320 40.275,268.583 40.000 C 268.847 39.725,268.992 39.509,268.906 39.520 C 268.820 39.531,268.549 39.756,268.302 40.020 M200.289 40.538 C 200.365 41.425,200.647 42.750,200.738 42.642 C 200.809 42.557,200.397 39.841,200.298 39.742 C 200.252 39.697,200.248 40.055,200.289 40.538 M271.917 40.588 C 271.265 41.123,271.440 41.119,272.167 40.583 C 272.477 40.354,272.661 40.169,272.574 40.173 C 272.487 40.176,272.192 40.363,271.917 40.588 M265.125 41.284 C 265.331 41.324,265.669 41.324,265.875 41.284 C 266.081 41.245,265.912 41.212,265.500 41.212 C 265.087 41.212,264.919 41.245,265.125 41.284 M331.027 43.757 C 330.748 44.370,330.801 44.501,331.103 43.944 C 331.244 43.683,331.328 43.439,331.290 43.401 C 331.252 43.363,331.134 43.523,331.027 43.757 M244.053 46.500 C 244.053 47.096,244.084 47.340,244.121 47.042 C 244.158 46.744,244.158 46.256,244.121 45.958 C 244.084 45.660,244.053 45.904,244.053 46.500 M366.370 47.750 C 366.371 47.933,366.430 48.308,366.500 48.583 C 366.614 49.032,366.628 49.041,366.630 48.667 C 366.632 48.438,366.573 48.063,366.500 47.833 C 366.395 47.507,366.367 47.489,366.370 47.750 M244.012 48.292 C 244.058 48.780,244.311 49.053,244.322 48.625 C 244.328 48.373,244.258 48.167,244.167 48.167 C 244.075 48.167,244.005 48.223,244.012 48.292 M347.862 49.583 C 347.859 49.767,347.921 50.067,348.000 50.250 C 348.183 50.675,348.183 50.237,348.000 49.667 C 347.893 49.332,347.866 49.315,347.862 49.583 M244.446 50.208 C 244.531 50.323,244.784 50.697,245.008 51.041 C 245.233 51.384,245.480 51.665,245.556 51.666 C 245.633 51.666,245.507 51.442,245.276 51.168 C 245.045 50.893,244.809 50.518,244.750 50.334 C 244.692 50.150,244.565 50.000,244.468 50.000 C 244.357 50.000,244.349 50.076,244.446 50.208 M330.582 50.665 C 330.724 50.939,330.850 51.220,330.862 51.290 C 330.889 51.449,331.396 51.827,331.475 51.747 C 331.507 51.715,331.339 51.433,331.100 51.120 C 330.862 50.808,330.667 50.465,330.667 50.359 C 330.667 50.253,330.590 50.167,330.496 50.167 C 330.398 50.167,330.436 50.381,330.582 50.665 M215.680 51.362 C 215.330 51.804,215.321 51.844,215.613 51.661 C 215.976 51.435,216.418 50.827,216.210 50.843 C 216.140 50.848,215.902 51.081,215.680 51.362 M278.617 51.245 C 278.782 51.471,278.986 51.659,279.071 51.661 C 279.155 51.664,279.049 51.479,278.833 51.250 C 278.334 50.718,278.232 50.716,278.617 51.245 M353.158 51.427 C 352.842 51.753,352.696 51.973,352.833 51.915 C 353.063 51.819,353.940 50.833,353.795 50.833 C 353.761 50.833,353.474 51.100,353.158 51.427 M367.917 51.667 C 368.340 52.033,368.776 52.333,368.885 52.333 C 368.994 52.332,368.858 52.193,368.583 52.023 C 368.308 51.853,367.940 51.554,367.766 51.357 C 367.591 51.161,367.380 51.000,367.297 51.000 C 367.214 51.000,367.493 51.300,367.917 51.667 M226.318 51.472 C 226.408 51.640,226.614 51.884,226.776 52.014 C 226.985 52.181,226.960 52.093,226.690 51.708 C 226.279 51.121,226.054 50.979,226.318 51.472 M358.781 51.675 C 358.523 51.945,358.380 52.167,358.464 52.167 C 358.617 52.167,359.019 51.754,359.234 51.375 C 359.416 51.056,359.294 51.136,358.781 51.675 M348.667 51.457 C 348.667 51.988,350.807 52.858,351.433 52.582 C 351.666 52.478,351.473 52.411,350.702 52.329 C 349.867 52.239,349.553 52.120,349.160 51.744 C 348.889 51.484,348.667 51.355,348.667 51.457 M314.167 51.966 C 314.746 52.480,315.667 52.927,315.667 52.695 C 315.667 52.628,315.460 52.488,315.208 52.383 C 314.956 52.279,314.487 52.026,314.167 51.821 L 313.583 51.448 314.167 51.966 M199.153 51.894 C 199.375 52.167,200.000 52.580,200.000 52.454 C 200.000 52.422,199.756 52.218,199.458 51.999 C 199.123 51.754,199.007 51.714,199.153 51.894 M296.436 51.906 C 296.532 52.158,297.000 52.403,297.000 52.202 C 297.000 52.135,296.853 51.988,296.673 51.876 C 296.403 51.707,296.361 51.713,296.436 51.906 M322.263 52.130 L 321.943 52.583 322.388 52.179 C 322.856 51.755,322.914 51.663,322.708 51.672 C 322.640 51.675,322.439 51.881,322.263 52.130 M245.928 52.054 C 245.976 52.177,246.105 52.281,246.216 52.286 C 246.326 52.290,246.567 52.352,246.750 52.423 C 247.225 52.608,247.013 52.425,246.379 52.103 C 245.971 51.895,245.863 51.883,245.928 52.054 M279.451 52.234 C 279.615 52.454,279.774 52.611,279.803 52.583 C 279.891 52.500,279.431 51.833,279.285 51.833 C 279.212 51.833,279.286 52.013,279.451 52.234 M214.375 52.362 C 214.077 52.547,213.833 52.768,213.833 52.855 C 213.833 52.946,213.921 52.940,214.042 52.840 C 214.156 52.745,214.438 52.519,214.667 52.339 C 215.197 51.922,215.071 51.932,214.375 52.362 M218.500 52.333 C 218.179 52.509,217.977 52.656,218.050 52.660 C 218.227 52.669,219.167 52.180,219.167 52.079 C 219.167 51.970,219.157 51.974,218.500 52.333 M297.167 52.307 C 297.167 52.492,298.472 52.917,298.612 52.777 C 298.655 52.734,298.441 52.645,298.137 52.580 C 297.832 52.515,297.490 52.386,297.375 52.294 C 297.233 52.179,297.167 52.184,297.167 52.307 M319.708 52.370 C 319.502 52.470,319.333 52.617,319.333 52.698 C 319.333 52.838,319.611 52.719,320.167 52.341 C 320.493 52.120,320.188 52.139,319.708 52.370 M337.000 52.750 C 336.736 53.068,336.984 53.065,337.407 52.745 C 337.666 52.549,337.678 52.500,337.469 52.500 C 337.325 52.500,337.114 52.612,337.000 52.750 M284.083 53.000 C 283.873 53.090,283.842 53.143,284.000 53.143 C 284.137 53.143,284.400 53.079,284.583 53.000 C 284.793 52.910,284.824 52.857,284.667 52.857 C 284.529 52.857,284.267 52.921,284.083 53.000 M316.875 52.955 C 317.219 52.991,317.781 52.991,318.125 52.955 C 318.469 52.919,318.188 52.889,317.500 52.889 C 316.813 52.889,316.531 52.919,316.875 52.955 M229.917 53.167 C 229.973 53.258,230.165 53.333,230.343 53.333 C 230.521 53.333,230.667 53.258,230.667 53.167 C 230.667 53.075,230.475 53.000,230.240 53.000 C 229.998 53.000,229.858 53.072,229.917 53.167 M230.872 53.500 C 230.872 53.821,230.906 53.952,230.948 53.792 C 230.990 53.631,230.990 53.369,230.948 53.208 C 230.906 53.048,230.872 53.179,230.872 53.500 M334.292 53.284 C 334.498 53.324,334.835 53.324,335.042 53.284 C 335.248 53.245,335.079 53.212,334.667 53.212 C 334.254 53.212,334.085 53.245,334.292 53.284 M210.583 53.489 C 209.427 53.571,209.324 53.602,209.807 53.725 C 210.374 53.869,211.593 53.755,212.230 53.497 C 212.638 53.332,212.783 53.333,210.583 53.489 M254.740 53.575 C 254.428 53.808,254.430 53.813,254.794 53.722 C 255.002 53.669,255.213 53.560,255.262 53.480 C 255.403 53.252,255.098 53.307,254.740 53.575 M335.272 54.596 C 334.826 54.718,334.413 54.868,334.355 54.929 C 334.297 54.991,334.400 54.999,334.583 54.946 C 334.767 54.894,335.198 54.801,335.542 54.740 C 335.885 54.679,336.167 54.563,336.167 54.481 C 336.167 54.400,336.148 54.343,336.125 54.354 C 336.102 54.365,335.718 54.474,335.272 54.596 M204.750 54.614 C 204.933 54.654,205.339 54.755,205.652 54.838 C 206.014 54.934,206.164 54.930,206.062 54.829 C 205.975 54.742,205.569 54.641,205.160 54.605 C 204.751 54.569,204.567 54.573,204.750 54.614 M227.133 54.690 C 227.014 54.764,227.442 54.779,228.083 54.723 C 228.725 54.666,229.286 54.589,229.330 54.550 C 229.479 54.418,227.349 54.554,227.133 54.690 M310.579 54.660 C 310.638 54.755,310.882 54.833,311.121 54.833 C 311.643 54.833,311.583 54.754,310.944 54.600 C 310.635 54.526,310.509 54.546,310.579 54.660 M317.605 54.617 C 317.541 54.681,316.460 54.787,315.202 54.851 L 312.917 54.968 315.250 54.915 C 317.293 54.869,319.532 54.560,318.153 54.514 C 317.916 54.506,317.670 54.553,317.605 54.617 M328.917 54.659 C 329.237 54.804,330.129 54.898,329.986 54.772 C 329.948 54.738,329.617 54.665,329.250 54.609 C 328.785 54.539,328.684 54.554,328.917 54.659 M211.250 54.838 C 211.027 54.936,211.166 54.952,211.667 54.886 C 212.079 54.832,212.448 54.760,212.486 54.727 C 212.631 54.601,211.568 54.697,211.250 54.838 M224.775 54.857 C 224.331 54.923,223.922 55.022,223.867 55.077 C 223.748 55.197,225.504 55.017,226.333 54.826 L 226.917 54.691 226.250 54.714 C 225.883 54.726,225.220 54.790,224.775 54.857 M330.166 54.875 C 330.166 54.944,331.085 54.987,332.208 54.971 C 334.281 54.941,334.034 54.876,331.541 54.795 C 330.785 54.770,330.166 54.806,330.166 54.875 M207.798 54.957 C 208.375 54.990,209.275 54.989,209.798 54.956 C 210.322 54.923,209.850 54.897,208.750 54.897 C 207.650 54.897,207.222 54.924,207.798 54.957 M273.667 54.953 C 273.667 55.035,273.929 55.356,274.250 55.667 C 274.571 55.978,274.833 56.181,274.833 56.119 C 274.833 56.057,274.571 55.736,274.250 55.405 C 273.929 55.075,273.667 54.871,273.667 54.953 M348.047 54.956 C 348.485 54.990,349.160 54.990,349.547 54.955 C 349.934 54.920,349.575 54.892,348.750 54.892 C 347.925 54.893,347.609 54.922,348.047 54.956 M222.667 55.167 C 222.337 55.272,222.319 55.300,222.583 55.300 C 222.767 55.300,223.104 55.240,223.333 55.167 C 223.663 55.061,223.681 55.033,223.417 55.033 C 223.233 55.033,222.896 55.093,222.667 55.167 M257.000 55.833 C 257.000 55.925,257.229 56.000,257.510 56.000 C 257.807 56.000,257.977 55.931,257.917 55.833 C 257.860 55.742,257.631 55.667,257.407 55.667 C 257.183 55.667,257.000 55.742,257.000 55.833 M261.042 56.750 C 261.044 57.117,261.078 57.247,261.118 57.040 C 261.158 56.832,261.156 56.532,261.115 56.373 C 261.073 56.214,261.040 56.383,261.042 56.750 M259.007 56.417 C 259.010 56.606,259.994 57.729,260.080 57.641 C 260.110 57.609,259.881 57.283,259.570 56.917 C 259.259 56.550,259.006 56.325,259.007 56.417 M251.675 56.900 C 251.558 57.120,251.502 57.402,251.551 57.525 C 251.605 57.661,251.646 57.615,251.654 57.408 C 251.661 57.220,251.755 56.978,251.864 56.869 C 251.972 56.761,252.022 56.634,251.975 56.586 C 251.928 56.539,251.793 56.680,251.675 56.900 M251.503 61.431 C 251.504 61.606,251.581 61.862,251.674 62.000 C 251.798 62.183,251.813 62.115,251.732 61.750 C 251.595 61.137,251.499 61.004,251.503 61.431 M253.167 64.583 C 253.382 64.813,253.586 65.000,253.620 65.000 C 253.759 65.000,253.072 64.177,252.929 64.172 C 252.845 64.169,252.951 64.354,253.167 64.583 M256.181 66.723 C 256.341 66.853,257.667 67.324,257.667 67.251 C 257.667 67.151,256.521 66.667,256.285 66.667 C 256.189 66.667,256.142 66.692,256.181 66.723 " stroke="none" fill="#f06418" fill-rule="evenodd"></path></g></svg>